<svg xmlns="http://www.w3.org/2000/svg" width="14" height="18" viewBox="0 0 14 18">
    <g fill="none" fill-rule="evenodd">
        <g fill="#FFF" fill-rule="nonzero">
            <g>
                <g>
                    <path d="M7 11.808c1.499 0 2.714-1.251 2.714-2.795C9.714 7.47 8.499 6.218 7 6.218c-1.499 0-2.714 1.252-2.714 2.795.002 1.543 1.216 2.794 2.714 2.795zm0-4.666c.736 0 1.4.457 1.682 1.158.281.7.125 1.507-.396 2.043-.521.536-1.305.695-1.985.404-.68-.29-1.122-.975-1.121-1.734.002-1.034.816-1.871 1.82-1.871zm3.554 9.204c1.513-1.746 2.955-4.23 2.955-6.642C13.509 6 10.595 3 7 3S.491 6.001.491 9.704c0 2.374 1.43 4.853 3.006 6.633C2.154 16.6 0 17.214 0 18.515 0 20.144 3.52 21 7 21s7-.856 7-2.485c0-1.3-2.1-1.915-3.446-2.172v.003zM7 3.917c3.099.005 5.61 2.592 5.615 5.784 0 2.604-1.933 5.365-3.592 6.94-1.034.981-1.788 1.316-1.987 1.3-1.01-.086-5.66-4.249-5.66-8.24C1.381 6.505 3.898 3.917 7 3.917zM7 20.08c-3.95 0-6.106-1.034-6.106-1.565 0-.28.792-.979 3.246-1.36.038-.005.074-.017.108-.033 1.057 1.025 2.085 1.684 2.716 1.737h.084c.828 0 1.966-.96 2.582-1.534l.176-.172h.054c2.451.38 3.246 1.08 3.246 1.359 0 .543-2.156 1.568-6.106 1.568z" transform="translate(-630 -4153) translate(0 4090) translate(630 60)"/>
                </g>
            </g>
        </g>
    </g>
</svg>
