<svg xmlns="http://www.w3.org/2000/svg" xmlns:xlink="http://www.w3.org/1999/xlink" width="74" height="74" viewBox="0 0 74 74">
    <defs>
        <linearGradient id="5y7a6s4ymc" x1="11.49%" x2="106.001%" y1="68.081%" y2="26.535%">
            <stop offset="0%" stop-color="#1866FB"/>
            <stop offset="100%" stop-color="#33D0FD"/>
        </linearGradient>
        <filter id="yb60o5hd1a" width="128.1%" height="128.1%" x="-14.1%" y="-9.4%" filterUnits="objectBoundingBox">
            <feOffset dy="3" in="SourceAlpha" result="shadowOffsetOuter1"/>
            <feGaussianBlur in="shadowOffsetOuter1" result="shadowBlurOuter1" stdDeviation="2.5"/>
            <feColorMatrix in="shadowBlurOuter1" values="0 0 0 0 0.031372549 0 0 0 0 0.149019608 0 0 0 0 0.658823529 0 0 0 0.15 0"/>
        </filter>
        <path id="osbsmqbs8b" d="M22.972 0h18.056c7.988 0 10.884.832 13.805 2.394 2.92 1.561 5.212 3.853 6.773 6.773C63.168 12.087 64 14.984 64 22.972v18.056c0 7.988-.832 10.884-2.394 13.805-1.561 2.92-3.853 5.212-6.773 6.773C51.913 63.168 49.016 64 41.028 64H22.972c-7.988 0-10.884-.832-13.805-2.394-2.92-1.561-5.212-3.853-6.773-6.773C.832 51.913 0 49.016 0 41.028V22.972c0-7.988.832-10.884 2.394-13.805 1.561-2.92 3.853-5.212 6.773-6.773C12.087.832 14.984 0 22.972 0z"/>
    </defs>
    <g fill="none" fill-rule="evenodd">
        <g>
            <g>
                <g>
                    <g>
                        <g transform="translate(-1073 -1223) translate(150 868) translate(810 357) translate(118)">
                            <use fill="#000" filter="url(#yb60o5hd1a)" xlink:href="#osbsmqbs8b"/>
                            <use fill="url(#5y7a6s4ymc)" xlink:href="#osbsmqbs8b"/>
                        </g>
                        <path fill="#FFF" fill-rule="nonzero" d="M45.529 16.327c1.715 0 3.111 1.449 3.111 3.229v13.25c0 1.596-.587 3.104-1.654 4.246l-7.45 7.975v2.638c0 .538-.437.975-.976.975H25.44c-.539 0-.975-.437-.975-.975v-2.638l-7.451-7.975c-1.067-1.142-1.654-2.65-1.654-4.246v-13.25c0-1.78 1.396-3.229 3.111-3.229 1.715 0 3.111 1.449 3.111 3.229v8.165c.222-.05.45-.077.683-.077.842 0 1.632.343 2.222.966l6.343 6.692c.46.486.852 1.025 1.17 1.604.318-.579.71-1.118 1.17-1.604l6.343-6.692c.59-.623 1.38-.966 2.222-.966l.231.009c.153.011.304.034.452.068v-8.165c0-1.78 1.396-3.229 3.111-3.229zm-27.058 1.95c-.64 0-1.16.574-1.16 1.279v13.25c0 1.1.4 2.136 1.128 2.915l7.714 8.256c.168.181.262.419.262.666v2.047h4.603l.006-6.222c-.073-1.432-.65-2.812-1.61-3.824L23.07 29.95c-.218-.23-.504-.357-.806-.357-.301 0-.588.127-.806.357-.476.503-.476 1.352 0 1.854l4.717 4.977c.37.39.354 1.008-.037 1.378-.189.179-.43.267-.67.267-.26 0-.517-.102-.709-.304l-4.717-4.977c-1.026-1.083-1.163-2.754-.411-3.995v-9.595c0-.705-.521-1.279-1.16-1.279zm27.058 0c-.64 0-1.16.574-1.16 1.279v9.595c.751 1.24.614 2.912-.412 3.995l-4.717 4.977c-.192.202-.45.304-.708.304-.24 0-.482-.088-.67-.267-.392-.37-.408-.987-.038-1.378l4.717-4.977c.476-.502.476-1.351 0-1.854-.218-.23-.505-.357-.806-.357-.302 0-.588.127-.806.357l-6.343 6.693c-.96 1.012-1.537 2.392-1.61 3.824l.006 6.222h4.603v-2.047c0-.247.094-.485.262-.666l7.714-8.256c.728-.78 1.129-1.815 1.129-2.915v-13.25c0-.705-.521-1.279-1.161-1.279zm-9.774-2.917c1.336 0 2.59.522 3.531 1.47.932.937 1.44 2.179 1.431 3.495-.014 1.978-1.444 4.104-4.252 6.32-1.979 1.562-3.926 2.6-4.008 2.644-.282.15-.629.15-.911.001-.083-.043-2.044-1.082-4.03-2.644-2.823-2.22-4.247-4.35-4.233-6.334.01-1.324.527-2.566 1.458-3.499.936-.937 2.18-1.453 3.504-1.453 1.468 0 2.83.652 3.755 1.723.925-1.07 2.287-1.723 3.755-1.723zm0 1.95c-1.27 0-2.41.806-2.836 2.006-.138.39-.506.65-.919.65-.413 0-.781-.26-.92-.65-.424-1.2-1.564-2.006-2.835-2.006-1.649 0-3 1.353-3.012 3.015-.018 2.594 4.594 5.754 6.762 6.987.67-.386 1.984-1.187 3.282-2.214 2.241-1.773 3.48-3.473 3.49-4.786.005-.793-.302-1.542-.865-2.109-.572-.576-1.335-.893-2.147-.893z" transform="translate(-1073 -1223) translate(150 868) translate(810 357) translate(118)"/>
                    </g>
                </g>
            </g>
        </g>
    </g>
</svg>
