<svg xmlns="http://www.w3.org/2000/svg" width="19" height="18" viewBox="0 0 19 18">
    <g fill="none" fill-rule="evenodd">
        <g fill="#FFF" fill-rule="nonzero">
            <g>
                <g>
                    <path d="M19 10.79c-.021-.127-.042-.231-.084-.336-.085-.189-.212-.357-.38-.483l-2.28-1.866V6.323c0-.692-.57-1.258-1.267-1.258h-2.491l-2.196-1.782c-.464-.377-1.14-.377-1.604 0L6.502 5.065h-2.49c-.698 0-1.268.566-1.268 1.258v1.782L.486 9.93c-.17.125-.296.293-.38.482v.02c-.064.168-.106.315-.106.504v8.827c0 .335.148.65.359.88.232.231.549.357.887.357h16.466c.338 0 .655-.147.887-.356.232-.231.359-.546.359-.881v-8.827c.042-.063.042-.105.042-.147zm-2.744-1.594l1.688 1.363-1.688 1.635V9.196zm-7.03-5.263c.084-.063.168-.105.274-.105.106 0 .19.042.274.105l1.394 1.132H7.832l1.394-1.132zm-5.637 2.39c0-.23.19-.42.422-.42H14.99c.232 0 .422.19.422.42v6.689l-.042.02-2.153 2.097H5.784l-2.153-2.096-.042-.021V6.323zm-.845 2.873v2.998l-1.688-1.635 1.688-1.363zm-1.9 10.4v-8.073l4.16 4.026-4.16 4.046zm.613.565l4.327-4.193h7.432l4.327 4.193H1.457zm16.699-.566l-4.16-4.046 4.16-4.026v8.072zM9.5 14.291c.486 0 .971-.084 1.436-.273.21-.084.316-.335.232-.545-.085-.21-.338-.315-.55-.23-.358.146-.717.209-1.097.209-.549 0-1.077-.147-1.52-.42-.865-.524-1.435-1.446-1.435-2.515 0-1.615 1.33-2.936 2.955-2.936 1.626 0 2.956 1.321 2.956 2.936v.21c0 .335-.275.628-.634.628s-.633-.293-.633-.629v-.21c0-.922-.76-1.677-1.689-1.677s-1.689.755-1.689 1.678c0 .922.76 1.677 1.69 1.677.464 0 .907-.189 1.202-.503.275.314.676.503 1.12.503.823 0 1.477-.65 1.477-1.468v-.21c0-2.075-1.71-3.773-3.8-3.773s-3.8 1.698-3.8 3.774c0 .964.38 1.845.971 2.516.676.775 1.69 1.258 2.808 1.258zm0-2.936c-.464 0-.844-.377-.844-.838 0-.462.38-.84.844-.84.464 0 .844.378.844.84 0 .46-.38.838-.844.838z" transform="translate(-636 -4240) translate(0 4090) translate(636 147)"/>
                </g>
            </g>
        </g>
    </g>
</svg>
