<svg xmlns="http://www.w3.org/2000/svg" width="14" height="24" viewBox="0 0 14 24">
    <g fill="none" fill-rule="evenodd">
        <g fill="#DFE0E6" fill-rule="nonzero">
            <g>
                <g>
                    <g>
                        <g>
                            <path d="M31.165 73.338l-3.198-.005c-3.593 0-5.915 2.254-5.915 5.743v2.647h-3.216c-.278 0-.503.213-.503.476v3.836c0 .263.226.476.503.476h3.216v9.68c0 .263.225.476.503.476h4.195c.278 0 .503-.213.503-.476v-9.68h3.76c.277 0 .502-.213.502-.476l.002-3.836c0-.126-.053-.247-.147-.336-.095-.09-.223-.14-.356-.14h-3.761V79.48c0-1.079.271-1.626 1.757-1.626l2.154-.001c.278 0 .503-.213.503-.476v-3.562c0-.262-.225-.475-.502-.476z" transform="translate(-1061 -4258) translate(0 4090) translate(968 60) translate(0 35) translate(75)"/>
                        </g>
                    </g>
                </g>
            </g>
        </g>
    </g>
</svg>
