<svg xmlns="http://www.w3.org/2000/svg" width="10" height="18" viewBox="0 0 10 18">
    <g fill="none" fill-rule="evenodd">
        <g fill="#8C8C8C" fill-rule="nonzero">
            <g>
                <g>
                    <path d="M103.623.004L101.225 0c-2.695 0-4.436 1.739-4.436 4.43v2.042h-2.412c-.208 0-.377.165-.377.367V9.8c0 .203.169.367.377.367h2.412v7.467c0 .203.169.367.377.367h3.146c.209 0 .378-.164.378-.367v-7.467h2.82c.208 0 .376-.164.376-.367l.002-2.96c0-.097-.04-.19-.11-.26-.071-.068-.168-.107-.268-.107h-2.82V4.741c0-.832.203-1.255 1.317-1.255h1.616c.208 0 .377-.165.377-.367V.37c0-.203-.169-.367-.377-.367z" transform="translate(-1247 -985) translate(0 964) translate(1153 21)"/>
                </g>
            </g>
        </g>
    </g>
</svg>
