<svg xmlns="http://www.w3.org/2000/svg" width="24" height="24" viewBox="0 0 24 24">
    <g fill="none" fill-rule="evenodd">
        <g fill="#DFE0E6" fill-rule="nonzero">
            <g>
                <g>
                    <g>
                        <path d="M25.336 13.333c3.492.001 3.96.017 5.415.083 1.387.063 2.14.295 2.642.49.618.228 1.177.592 1.636 1.064.473.46.837 1.019 1.065 1.637.195.501.427 1.255.49 2.642.062 1.364.08 1.86.082 4.794v1.914c-.002 2.933-.02 3.43-.082 4.794-.064 1.387-.295 2.14-.49 2.642-.479 1.241-1.46 2.222-2.701 2.7-.502.196-1.255.428-2.643.49-1.363.063-1.86.08-4.794.083h-1.913c-2.934-.002-3.43-.02-4.794-.082-1.387-.063-2.14-.295-2.642-.49-.619-.228-1.177-.592-1.637-1.065-.472-.459-.836-1.018-1.064-1.636-.195-.502-.427-1.255-.49-2.642-.068-1.501-.083-1.951-.083-5.751v-.336c0-3.492.017-3.96.083-5.415.063-1.387.295-2.14.49-2.642.228-.619.592-1.177 1.065-1.637.459-.472 1.018-.836 1.636-1.064.501-.195 1.255-.427 2.642-.49 1.5-.069 1.95-.083 5.751-.083zM25 17.693c-4.036 0-7.308 3.27-7.308 7.307 0 4.036 3.272 7.307 7.308 7.307s7.308-3.271 7.308-7.307c0-4.036-3.272-7.308-7.308-7.308zm0 2.563c2.62 0 4.744 2.124 4.744 4.744 0 2.62-2.124 4.743-4.744 4.743-2.62 0-4.744-2.123-4.744-4.743S22.38 20.256 25 20.256zm7.597-4.56c-.944 0-1.708.764-1.708 1.707 0 .943.764 1.708 1.708 1.708.943 0 1.707-.765 1.707-1.708s-.764-1.708-1.707-1.708z" transform="translate(-981 -4198) translate(0 4090) translate(968 60) translate(0 35)"/>
                    </g>
                </g>
            </g>
        </g>
    </g>
</svg>
