<svg xmlns="http://www.w3.org/2000/svg" width="63" height="54" viewBox="0 0 63 54">
    <g fill="none" fill-rule="evenodd">
        <g fill="#525553" fill-rule="nonzero">
            <g>
                <g>
                    <path d="M59.398 9.425H48.925V5.236C48.922 2.346 46.58.003 43.69 0H33.216c-2.89.003-5.233 2.346-5.236 5.236v4.19h-3.142c-.578 0-1.047.468-1.047 1.047 0 .578.469 1.047 1.047 1.047h34.56c.578 0 1.047.469 1.047 1.047V27.23c0 .578-.469 1.047-1.047 1.047h-3.142v-4.189c0-1.735-1.407-3.142-3.142-3.142h-6.283c-1.736 0-3.142 1.407-3.142 3.142v4.19H33.216v-4.19c0-1.735-1.407-3.142-3.142-3.142h-6.283c-.579 0-1.048.47-1.048 1.048 0 .578.47 1.047 1.048 1.047h6.283c.579 0 1.048.469 1.048 1.047v4.19H27.98v-2.095c0-.579-.47-1.047-1.048-1.047-.578 0-1.047.468-1.047 1.047v2.094h-1.298c-.579 0-1.048.47-1.048 1.048 0 .578.47 1.047 1.048 1.047h6.535v2.094c0 .579-.47 1.048-1.048 1.048H26.22c-.578 0-1.047.469-1.047 1.047s.469 1.047 1.047 1.047h3.854c1.735 0 3.142-1.406 3.142-3.142v-2.094H43.69v2.094c0 1.736 1.406 3.142 3.142 3.142h4.189c1.735 0 3.142-1.406 3.142-3.142v-2.094h4.189v12.567c0 1.157-.938 2.095-2.095 2.095h-30.37c-.58 0-1.048.469-1.048 1.047s.469 1.047 1.047 1.047h30.371c2.314 0 4.19-1.875 4.19-4.189v-12.76c1.25-.442 2.088-1.622 2.094-2.949V12.567c0-1.735-1.407-3.142-3.142-3.142zm-29.324 0V5.236c0-1.735 1.407-3.141 3.142-3.141H43.69c1.735 0 3.142 1.406 3.142 3.141v4.19H30.074zm21.993 23.04c0 .579-.469 1.048-1.047 1.048h-4.19c-.578 0-1.047-.47-1.047-1.048v-2.094h6.284v2.094zm1.047-4.189H51.02v-2.094c0-.579-.47-1.047-1.048-1.047-.578 0-1.047.468-1.047 1.047v2.094h-3.142v-4.189c0-.578.47-1.047 1.048-1.047h6.283c.579 0 1.048.469 1.048 1.047v4.19h-1.048z" transform="translate(-807 -322) translate(735 259) translate(72 63)"/>
                    <path d="M55.209 42.938c.578 0 1.047-.469 1.047-1.047v-3.142c0-.578-.469-1.047-1.047-1.047-.579 0-1.047.469-1.047 1.047v2.095h-2.095c-.578 0-1.047.469-1.047 1.047s.469 1.047 1.047 1.047h3.142zM21.777 10.937l.517-4.134c.15-1.193-.221-2.392-1.017-3.293-.796-.9-1.94-1.416-3.142-1.415h-4.817c-.578 0-1.047.468-1.047 1.047 0 .578.469 1.047 1.047 1.047h4.817c.601 0 1.173.258 1.57.709.398.45.583 1.05.508 1.645l-.514 4.14c-.03.23-.134.445-.299.61l-3.254 3.246-3.875 3.875-7.13-7.126c-.164-.166-.27-.38-.299-.611l-.516-4.134c-.075-.596.11-1.196.509-1.646.398-.45.97-.708 1.57-.708h1.677c.578 0 1.047-.469 1.047-1.047 0-.579-.47-1.047-1.047-1.047H6.406c-1.202 0-2.347.516-3.142 1.418-.796.901-1.165 2.101-1.015 3.294l.518 4.134c.087.693.402 1.337.895 1.832l2.04 2.039-5.6 25.169c-.316 1.4.11 2.863 1.128 3.875l8.079 8.078c1.637 1.633 4.286 1.633 5.923 0l8.029-8.027c1.046-1.052 1.461-2.577 1.092-4.014l-6.3-24.296 2.828-2.828c.494-.494.809-1.14.896-1.832zM4.707 28.95l8.31-8.31 3.323-3.324 1.116 4.3L3.152 35.914l1.554-6.963zm6.083-9.052l-5.243 5.243 1.906-8.578 3.337 3.335zM2.147 40.434l.159-.712L18.06 23.968l1.115 4.3L3.892 43.552l-1.18-1.181c-.508-.507-.72-1.237-.565-1.937zM20.9 34.921l-12.82 12.82-2.708-2.708L19.786 30.62l1.115 4.301zm.879 7.5L13.75 50.45c-.817.818-2.143.818-2.961 0l-1.228-1.227 11.949-11.949.814 3.142c.185.719-.022 1.48-.545 2.007z" transform="translate(-807 -322) translate(735 259) translate(72 63)"/>
                </g>
            </g>
        </g>
    </g>
</svg>
