<svg xmlns="http://www.w3.org/2000/svg" xmlns:xlink="http://www.w3.org/1999/xlink" width="74" height="74" viewBox="0 0 74 74">
    <defs>
        <linearGradient id="ngje8k4yqc" x1="11.49%" x2="106.001%" y1="68.081%" y2="26.535%">
            <stop offset="0%" stop-color="#1866FB"/>
            <stop offset="100%" stop-color="#33D0FD"/>
        </linearGradient>
        <filter id="zttehbhwwa" width="128.1%" height="128.1%" x="-14.1%" y="-9.4%" filterUnits="objectBoundingBox">
            <feOffset dy="3" in="SourceAlpha" result="shadowOffsetOuter1"/>
            <feGaussianBlur in="shadowOffsetOuter1" result="shadowBlurOuter1" stdDeviation="2.5"/>
            <feColorMatrix in="shadowBlurOuter1" values="0 0 0 0 0.141176471 0 0 0 0 0.031372549 0 0 0 0 0.501960784 0 0 0 0.15 0"/>
        </filter>
        <path id="lnec7gv08b" d="M22.972 0h18.056c7.988 0 10.884.832 13.805 2.394 2.92 1.561 5.212 3.853 6.773 6.773C63.168 12.087 64 14.984 64 22.972v18.056c0 7.988-.832 10.884-2.394 13.805-1.561 2.92-3.853 5.212-6.773 6.773C51.913 63.168 49.016 64 41.028 64H22.972c-7.988 0-10.884-.832-13.805-2.394-2.92-1.561-5.212-3.853-6.773-6.773C.832 51.913 0 49.016 0 41.028V22.972c0-7.988.832-10.884 2.394-13.805 1.561-2.92 3.853-5.212 6.773-6.773C12.087.832 14.984 0 22.972 0z"/>
    </defs>
    <g fill="none" fill-rule="evenodd">
        <g>
            <g>
                <g>
                    <g>
                        <g transform="translate(-293 -1223) translate(150 868) translate(0 317) translate(148 40)">
                            <use fill="#000" filter="url(#zttehbhwwa)" xlink:href="#lnec7gv08b"/>
                            <use fill="url(#ngje8k4yqc)" xlink:href="#lnec7gv08b"/>
                        </g>
                        <path fill="#FFF" fill-rule="nonzero" d="M30.03 14.359c3.672-.795 7.418.129 10.274 2.535 2.857 2.406 4.496 5.972 4.496 9.784 0 4.27-2.068 8.216-5.532 10.554-.348.235-.548.575-.548.933v1.114h1.013c.56 0 1.014.47 1.014 1.05 0 .58-.454 1.05-1.014 1.05H38.72v2.24h1.013c.56 0 1.014.47 1.014 1.05 0 .58-.454 1.05-1.014 1.05h-3.04v1.05c0 1.738-1.364 3.151-3.04 3.151h-2.027c-1.676 0-3.04-1.413-3.04-3.15v-1.05h-3.04c-.56 0-1.013-.47-1.013-1.05 0-.58.453-1.05 1.013-1.05h1.014v-2.24h-1.014c-.56 0-1.013-.471-1.013-1.051s.453-1.05 1.013-1.05h1.014v-1.213c0-.424-.328-.687-.468-.78-2.007-1.332-3.58-3.22-4.553-5.462-1.018-2.348-1.31-4.962-.843-7.557.882-4.91 4.633-8.891 9.333-9.908zm4.636 31.36h-4.053v1.05c0 .58.454 1.05 1.013 1.05h2.027c.559 0 1.013-.47 1.013-1.05v-1.05zm2.027-4.34h-8.107v2.24h8.107v-2.24zm2.333-22.855c-2.381-2.006-5.51-2.774-8.583-2.11-3.905.846-7.02 4.156-7.754 8.237-.77 4.279.996 8.544 4.496 10.866.877.582 1.401 1.535 1.401 2.549v1.213h8.107v-1.114c0-1.065.549-2.072 1.469-2.693 2.887-1.949 4.611-5.237 4.611-8.794 0-3.177-1.366-6.149-3.747-8.154zm-6.386.803c.56 0 1.013.47 1.013 1.05V21.6c.527.183 1.035.508 1.493.967.401.404.412 1.069.022 1.485-.39.417-1.03.427-1.433.024-.493-.496-1.036-.666-1.49-.467-.376.165-.619.545-.619.968 0 .58.455 1.05 1.014 1.05 1.676 0 3.04 1.414 3.04 3.15 0 1.32-.804 2.51-2 2.961l-.027.01v1.23c0 .58-.454 1.05-1.013 1.05-.56 0-1.014-.47-1.014-1.05v-1.22c-.668-.234-1.306-.698-1.854-1.373-.36-.445-.304-1.107.124-1.48.43-.373 1.068-.315 1.428.129.536.66 1.142.927 1.663.73.398-.15.666-.546.666-.986 0-.58-.455-1.05-1.013-1.05-1.677 0-3.04-1.414-3.04-3.15 0-1.269.728-2.408 1.855-2.902.057-.026.114-.048.171-.07v-1.23c0-.58.454-1.05 1.014-1.05z" transform="translate(-293 -1223) translate(150 868) translate(0 317) translate(148 40)"/>
                    </g>
                </g>
            </g>
        </g>
    </g>
</svg>
