<svg xmlns="http://www.w3.org/2000/svg" width="63" height="54" viewBox="0 0 63 54">
    <g fill="none" fill-rule="evenodd">
        <g fill="#1866FB" fill-rule="nonzero">
            <g>
                <path d="M8.082 42.095c.578 0 1.047.468 1.047 1.047 0 .578-.47 1.047-1.047 1.047H6.406c-.601 0-1.173.257-1.571.708-.398.45-.584 1.05-.509 1.646l.516 4.134c.03.23.135.445.299.61l7.13 7.127 3.875-3.875 3.254-3.246c.165-.165.27-.38.299-.61l.514-4.14c.075-.596-.11-1.195-.508-1.645-.397-.45-.969-.709-1.57-.709h-4.817c-.578 0-1.047-.469-1.047-1.047 0-.579.469-1.047 1.047-1.047h4.817c1.202-.001 2.346.515 3.142 1.415.796.901 1.166 2.1 1.017 3.293l-.517 4.134c-.087.693-.402 1.338-.896 1.832l-2.827 2.828 6.299 24.296c.37 1.437-.046 2.962-1.092 4.014l-8.029 8.027c-1.637 1.633-4.286 1.633-5.923 0L1.23 83.856C.213 82.844-.214 81.38.102 79.98l5.6-25.17-2.04-2.038c-.493-.495-.808-1.14-.895-1.832l-.518-4.134c-.15-1.193.22-2.393 1.015-3.294.795-.902 1.94-1.418 3.142-1.418zM21.51 77.273L9.562 89.222l1.228 1.227c.818.818 2.144.818 2.961 0l8.029-8.027c.523-.526.73-1.288.545-2.007l-.814-3.142zm-1.725-6.653L5.373 85.033l2.709 2.708 12.82-12.82-1.116-4.3zM33.216 40H43.69c2.818.003 5.115 2.23 5.232 5.02l.004.216v4.19h10.473c1.675 0 3.044 1.31 3.137 2.963l.005.178V67.23c-.006 1.264-.766 2.394-1.919 2.881l-.176.068v12.76c0 2.244-1.763 4.075-3.98 4.184l-.209.005h-30.37c-.58 0-1.048-.469-1.048-1.047 0-.54.408-.984.933-1.041l.114-.006h30.371c1.107 0 2.013-.858 2.09-1.945l.005-.15V70.371h-4.19v2.094c0 1.676-1.31 3.045-2.963 3.137l-.178.005h-4.19c-1.675 0-3.044-1.311-3.136-2.963l-.005-.179v-2.094H33.216v2.094c0 1.676-1.311 3.045-2.963 3.137l-.179.005H26.22c-.578 0-1.047-.469-1.047-1.047 0-.54.408-.984.933-1.041l.114-.006h3.854c.54 0 .985-.409 1.041-.933l.007-.115v-2.094h-6.535c-.579 0-1.048-.469-1.048-1.047 0-.54.409-.985.933-1.041l.115-.007h1.298v-2.094c0-.579.469-1.047 1.047-1.047.54 0 .985.408 1.042.933l.006.114v2.094h3.142v-4.189c0-.54-.409-.984-.934-1.04l-.114-.007h-6.283c-.579 0-1.048-.469-1.048-1.047 0-.54.409-.985.934-1.041l.114-.007h6.283c1.676 0 3.045 1.312 3.137 2.964l.005.178v4.19H43.69v-4.19c0-1.675 1.311-3.044 2.963-3.137l.179-.005h6.283c1.676 0 3.045 1.312 3.137 2.964l.005.178v4.19h3.142c.54 0 .984-.41 1.041-.934l.006-.114V52.567c0-.54-.408-.984-.933-1.04l-.114-.007h-34.56c-.578 0-1.047-.469-1.047-1.047 0-.54.408-.985.933-1.041l.114-.007h3.142v-4.189c.003-2.818 2.23-5.115 5.02-5.231l.216-.005H43.69zM18.061 63.968L2.306 79.722l-.16.712c-.155.7.058 1.43.565 1.937l1.181 1.18 15.284-15.283-1.115-4.3zm37.148 13.734c.54 0 .984.408 1.04.933l.007.114v3.142c0 .54-.408.984-.933 1.041l-.114.006h-3.142c-.578 0-1.047-.469-1.047-1.047 0-.54.408-.984.933-1.041l.114-.006h2.095v-2.095c0-.578.468-1.047 1.047-1.047zM16.34 57.316L4.706 68.95l-1.554 6.963 14.304-14.296-1.116-4.301zM52.067 70.37h-6.284v2.094c0 .54.409.985.934 1.042l.114.006h4.189c.54 0 .984-.409 1.04-.933l.007-.115v-2.094zm1.047-7.331h-6.283c-.54 0-.985.408-1.042.933l-.006.114v4.19h3.142v-2.095c0-.579.469-1.047 1.047-1.047.54 0 .985.408 1.042.933l.006.114v2.094h3.142v-4.189c0-.578-.47-1.047-1.048-1.047zm-45.66-6.477L5.546 65.14l5.243-5.243-3.337-3.335zm36.235-14.468H33.216c-1.675 0-3.044 1.31-3.137 2.963l-.005.178v4.19h16.757v-4.19c0-1.735-1.407-3.141-3.142-3.141z" transform="translate(-409 -540) translate(409 500)"/>
            </g>
        </g>
    </g>
</svg>
