<svg xmlns="http://www.w3.org/2000/svg" width="173" height="80" viewBox="0 0 173 80">
    <defs>
        <linearGradient id="34oh5ihrua" x1="175.916%" x2="273.161%" y1="37.816%" y2="27.173%">
            <stop offset="84.75%" stop-color="#1866FB"/>
            <stop offset="100%" stop-color="#33D0FD"/>
        </linearGradient>
        <linearGradient id="n1mtwe4hsb" x1="28.212%" x2="72.455%" y1="70.457%" y2="36.034%">
            <stop offset="21.95%" stop-color="#183BDB"/>
            <stop offset="100%" stop-color="#33D0FD"/>
        </linearGradient>
        <linearGradient id="i78504y64c" x1="15.354%" x2="100.383%" y1="68.081%" y2="26.535%">
            <stop offset="0%" stop-color="#1866FB"/>
            <stop offset="100%" stop-color="#33D0FD"/>
        </linearGradient>
    </defs>
    <g fill="none" fill-rule="evenodd">
        <g fill-rule="nonzero">
            <g>
                <g>
                    <g>
                        <g>
                            <path fill="url(#34oh5ihrua)" d="M44.93.3c-.239-.173-.554-.25-.97-.246-7.978.015-15.956.03-23.931.004-2.299-.007-4.478.521-6.577 1.278-1.514.546-3.023 1.249-4.333 2.15-3.526 2.429-6.223 5.499-7.754 9.502C.344 15.66.159 18.382.069 21.155c-.026.77.434 1.118 1.173 1.194.318.033.64.033.963.033H4.228c3.649-.004 7.294-.011 10.943 0h24.916c3.193-5.492 5.017-11.812 5.017-18.545C45.1 2.643 45.04 1.462 44.93.3z" transform="translate(-150 -4150) translate(0 4090) translate(150 60) translate(35.113 36.2)"/>
                            <path fill="url(#n1mtwe4hsb)" d="M44.93.3c-.239-.173-.554-.25-.97-.246-7.978.015-15.956.03-23.931.004-2.299-.007-4.478.521-6.577 1.278-1.514.546-3.023 1.249-4.333 2.15-3.526 2.429-6.223 5.499-7.754 9.502C.344 15.66.159 18.382.069 21.155c-.026.77.434 1.118 1.173 1.194.318.033.64.033.963.033H4.228c3.649-.004 7.294-.011 10.943 0h24.916c3.193-5.492 5.017-11.812 5.017-18.545C45.1 2.643 45.04 1.462 44.93.3z" transform="translate(-150 -4150) translate(0 4090) translate(150 60) translate(35.113 36.2)"/>
                        </g>
                        <path fill="url(#i78504y64c)" d="M50.284 57.237c-.597.271-1.22.492-1.908.59-3.927.564-7.811.894-11.72-.221-2.039-.583-3.936-1.42-5.691-2.556-2.024-1.31-3.678-3.019-5.162-4.93-1.535-1.976-2.556-4.22-3.164-6.57-.605-2.331-.829-4.76-.543-7.226.239-2.048.619-4.076 1.491-5.896.87-1.81 2.053-3.5 3.287-5.094.112-.144.228-.286.344-.423.474-.568.981-1.093 1.517-1.582 1.842-1.582 4.003-2.73 6.342-3.555 2.183-.767 4.474-1.1 6.82-1.093 6.32.025 12.64.04 18.957-.105 1.557-.036 3.175-.525 4.623-1.137 1.813-.763 3.508-1.74 4.999-3.037.304-.347.597-.702.872-1.064.004-.007.011-.014.015-.022.17-.224.337-.452.5-.687.014-.022.028-.047.047-.07.148-.216.293-.437.434-.658.029-.047.054-.094.083-.141.123-.203.246-.406.362-.608.044-.08.083-.16.127-.24.094-.177.192-.354.282-.535.065-.13.123-.264.185-.398.061-.134.127-.268.184-.402.116-.272.228-.547.33-.829.72-1.973 1.115-4.036 1.09-6.161.003-.358 0-.717-.022-1.079C74.88.118 74.889.053 73.513.053 62.668.046 51.82.115 40.973.003 35.37-.057 30.017.968 24.823 2.966c-1.405.54-2.835 1.126-4.087 1.944-.105.069-.206.137-.308.206l.011.044c-.004.003-.007.003-.01.007-.21.116-.42.235-.627.355C7.96 12.415 0 25.24 0 39.926c0 21.97 17.81 39.78 39.78 39.78 15.63 0 29.15-9.018 35.652-22.133.054-.112.116-.224.17-.336H50.284z" transform="translate(-150 -4150) translate(0 4090) translate(150 60)"/>
                    </g>
                    <g fill="#FFF">
                        <path d="M11.312 35.247c-1.643 0-3.153-.333-4.528-.995-1.376-.666-2.552-1.579-3.533-2.733-.981-1.155-1.738-2.495-2.274-4.011-.535-1.52-.807-3.135-.807-4.844 0-1.806.275-3.482.83-5.031.553-1.55 1.342-2.922 2.37-4.109 1.028-1.187 2.244-2.107 3.649-2.755 1.405-.648 2.961-.974 4.67-.974 1.925 0 3.616.428 5.071 1.282 1.452.854 2.654 2.005 3.602 3.46v-4.361h5.546v23.493c0 2.447-.601 4.543-1.803 6.284-1.202 1.741-2.827 3.077-4.883 4.004-2.056.926-4.424 1.39-7.11 1.39s-4.96-.45-6.827-1.35C3.421 43.094 1.825 41.823.5 40.18l3.46-3.367c.949 1.17 2.14 2.086 3.58 2.748 1.437.662 2.961.995 4.576.995 1.328 0 2.56-.231 3.696-.69 1.136-.464 2.038-1.177 2.7-2.144.663-.966.996-2.233.996-3.804V30.79c-.79 1.423-1.937 2.52-3.436 3.294-1.498.775-3.084 1.162-4.76 1.162zm2.132-5.071c.728 0 1.398-.109 2.013-.333.615-.225 1.195-.525 1.73-.905.536-.38 1.01-.833 1.423-1.354.409-.525.71-1.068.901-1.64v-5.897c-.347-.985-.861-1.839-1.542-2.566-.68-.728-1.437-1.293-2.273-1.687-.836-.395-1.716-.594-2.632-.594-.948 0-1.824.206-2.631.619-.808.413-1.495.981-2.06 1.712-.568.731-1.01 1.553-1.329 2.473-.315.92-.474 1.867-.474 2.852 0 1.014.181 1.966.547 2.853.362.886.854 1.672 1.47 2.353.615.68 1.35 1.205 2.204 1.57.854.363 1.738.544 2.653.544zM47.432 15.432c-1.959.032-3.696.405-5.217 1.115-1.516.71-2.624 1.763-3.315 3.153v15.073h-6.303V10.172h5.828v5.071c.884-1.705 2.017-3.048 3.389-4.029 1.375-.98 2.82-1.516 4.336-1.61.315.032.569.04.76.025.189-.015.362.007.522.072v5.73zM51.884 6.429V.174h6.306v6.255h-6.306zm0 28.344V9.937h6.306v24.836h-6.306zM79.805 33.542c-.569.253-1.224.514-1.966.782s-1.55.489-2.418.662c-.869.174-1.745.261-2.632.261-1.202 0-2.291-.203-3.269-.612-.98-.409-1.763-1.057-2.345-1.95-.587-.891-.876-2.06-.876-3.498V15.005h-3.222v-4.833h3.222V2.114h6.4v8.058h5.212v4.833H72.7V27.03c.032.843.268 1.459.71 1.85.44.387 1.01.586 1.704.586.634 0 1.263-.12 1.897-.355.63-.239 1.151-.452 1.564-.64l1.23 5.071z" transform="translate(-150 -4150) translate(0 4090) translate(150 60) translate(92.308 17.376)"/>
                    </g>
                </g>
            </g>
        </g>
    </g>
</svg>
