<svg xmlns="http://www.w3.org/2000/svg" width="62" height="64" viewBox="0 0 62 64">
    <g fill="none" fill-rule="evenodd">
        <g fill="#3C8C30" fill-rule="nonzero">
            <g>
                <g>
                    <path d="M13.7 26.2C22 23.9 32 25.3 39.9 30c7.9-4.7 17.9-6.1 26.3-3.8.4.2.7.6.7 1v9.6c2.3.6 4 3 4 5.9 0 2.9-1.7 5.3-4 5.9V59c0 .3-.1.6-.4.8-.3.2-.6.3-.9.2-8-2.3-17.7-.8-25.2 3.8l-.037.043c-.196.156-.963.142-.963-.043l-.44-.262C31.43 59.144 22.045 57.744 14.2 60c-.3.1-.6 0-.8-.1-.3-.2-.4-.5-.4-.8V48.6c-2.3-.6-4-3-4-5.9 0-2.9 1.7-5.3 4-5.9v-9.6c0-.5.3-.9.7-1zM39 31.7c-7.3-4.2-16.3-5.6-24-3.7v8.8c2.3.6 4 3 4 5.9 0 .6-.1 1.1-.2 1.6 5.3-1.4 11.7-.4 16.6 2.7.5.3.6.9.3 1.4-.5.7-1.2.4-1.4.3-4.5-2.9-10.2-3.8-15-2.5-.4.1-.9-.1-1.1-.4-.7 1.4-1.9 2.5-3.3 2.8v9.2c2.3-.5 4.7-.8 7.1-.8 5.8 0 11.7 1.5 16.9 4.3h.1zM64.9 28c-7.7-2-16.8-.6-24 3.7v29.6c7.4-4 16.3-5.3 24-3.5h.1v-9.1c-1.4-.4-2.6-1.4-3.3-2.8-.3.3-.7.5-1.1.4-4.8-1.3-10.5-.3-15 2.5-.2.1-.8.4-1.4-.3-.3-.5-.2-1.1.3-1.4 5-3.1 11.3-4.1 16.6-2.7-.1-.5-.2-1.1-.2-1.6 0-2.9 1.7-5.3 4-5.9zM35.4 53.5c.4.3.6 1 .2 1.4-.1.3-.5.5-.8.5-.2 0-.3-.1-.5-.2-4.5-2.9-10.2-3.8-15-2.5-.5.2-1.1-.2-1.2-.7-.1-.5.2-1.1.7-1.2 5.3-1.4 11.6-.4 16.6 2.7zM61 50.8c.6.2.9.7.6 1.2-.1.5-.7.9-1.2.7-4.8-1.3-10.5-.3-15 2.5-.1.2-.3.2-.5.2-.3 0-.6-.2-.8-.5-.3-.5-.2-1.1.3-1.4 5-3.1 11.3-4.1 16.6-2.7zM13.9 38.7c-.4 0-.7.1-1 .2-1.1.6-2 2.1-2 3.8 0 1.8.8 3.3 2 3.8.3.1.6.2 1 .2s.7-.1 1-.2c1.1-.6 2-2.1 2-3.8 0-1.8-.8-3.3-2-3.8-.3-.1-.6-.2-1-.2zm52 0c-.4 0-.7.1-1 .2-1.1.6-2 2.1-2 3.8 0 1.8.8 3.3 2 3.8.3.1.6.2 1 .2s.7-.1 1-.2c1.1-.6 2-2 2-3.8 0-1.8-.8-3.3-2-3.8-.3-.1-.6-.2-1-.2zm-30.5 1.7c.4.3.6.9.2 1.4-.1.3-.5.5-.8.5-.2 0-.3-.1-.5-.2-4.5-2.9-10.2-3.8-15-2.5-.5.2-1.1-.2-1.2-.7-.1-.5.2-1.1.7-1.2 5.3-1.4 11.6-.4 16.6 2.7zM61 37.7c.5.1.8.7.7 1.2-.1.5-.7.9-1.2.7-4.8-1.3-10.5-.3-15 2.5-.1.2-.3.2-.5.2-.4 0-.7-.2-.9-.5-.3-.5-.2-1.1.3-1.4 5-3.1 11.3-4.1 16.6-2.7zm-25.6-3.8c.4.3.6.9.2 1.4-.1.3-.5.5-.8.5-.2 0-.3-.1-.5-.2-4.5-2.9-10.2-3.8-15-2.5-.5.2-1.1-.2-1.2-.7-.1-.5.2-1.1.7-1.2 5.3-1.4 11.6-.4 16.6 2.7zM61 31.1c.5.1.8.7.7 1.2-.1.5-.7.8-1.2.7-4.8-1.3-10.5-.3-15 2.5-.1.2-.3.2-.5.2-.4 0-.7-.1-.9-.5-.3-.5-.2-1.1.3-1.4 5-3.1 11.3-4.1 16.6-2.7zM39.9 0c5.9 0 10.7 5.5 10.7 12.1s-4.8 12-10.7 12c-5.9 0-10.7-5.5-10.7-12.1S34 0 39.9 0zm0 2c-4.8 0-8.7 4.5-8.7 10s3.9 10 8.7 10c4.8 0 8.7-4.5 8.7-10S44.7 2 39.9 2z" transform="translate(-570 -552) translate(499 499) translate(62 53)"/>
                </g>
            </g>
        </g>
    </g>
</svg>
