<svg xmlns="http://www.w3.org/2000/svg" xmlns:xlink="http://www.w3.org/1999/xlink" width="74" height="74" viewBox="0 0 74 74">
    <defs>
        <linearGradient id="bw1enfu7kc" x1="11.49%" x2="106.001%" y1="68.081%" y2="26.535%">
            <stop offset="0%" stop-color="#1866FB"/>
            <stop offset="100%" stop-color="#33D0FD"/>
        </linearGradient>
        <filter id="k3gqjcqiba" width="128.1%" height="128.1%" x="-14.1%" y="-9.4%" filterUnits="objectBoundingBox">
            <feOffset dy="3" in="SourceAlpha" result="shadowOffsetOuter1"/>
            <feGaussianBlur in="shadowOffsetOuter1" result="shadowBlurOuter1" stdDeviation="2.5"/>
            <feColorMatrix in="shadowBlurOuter1" values="0 0 0 0 0.501960784 0 0 0 0 0.125490196 0 0 0 0 0 0 0 0 0.15 0"/>
        </filter>
        <path id="0rc1j9d0bb" d="M22.972 0h18.056c7.988 0 10.884.832 13.805 2.394 2.92 1.561 5.212 3.853 6.773 6.773C63.168 12.087 64 14.984 64 22.972v18.056c0 7.988-.832 10.884-2.394 13.805-1.561 2.92-3.853 5.212-6.773 6.773C51.913 63.168 49.016 64 41.028 64H22.972c-7.988 0-10.884-.832-13.805-2.394-2.92-1.561-5.212-3.853-6.773-6.773C.832 51.913 0 49.016 0 41.028V22.972c0-7.988.832-10.884 2.394-13.805 1.561-2.92 3.853-5.212 6.773-6.773C12.087.832 14.984 0 22.972 0z"/>
    </defs>
    <g fill="none" fill-rule="evenodd">
        <g>
            <g>
                <g>
                    <g>
                        <g transform="translate(-683 -1223) translate(150 868) translate(420 357) translate(118)">
                            <use fill="#000" filter="url(#k3gqjcqiba)" xlink:href="#0rc1j9d0bb"/>
                            <use fill="url(#bw1enfu7kc)" xlink:href="#0rc1j9d0bb"/>
                        </g>
                        <path fill="#FFF" fill-rule="nonzero" d="M32.271 29.41c4.473-2.941 9.913-3.252 14.054-.74.324.198.508.55.48.924l-.36 4.988h.762c1.1 0 1.99.896 1.982 1.99v3.104c0 1.094-.889 1.99-1.99 1.99h-1.262c-.176 2.44-.36 4.875-.53 7.316.008.663-1.008 1.34-1.692.635-3.09-3.083-7.606-3.987-10.971-2.187-.268.127-.572.148-.939 0-3.365-1.8-7.873-.896-10.97 2.187-.692.67-1.644.105-1.693-.635l-.53-7.316H17.35c-1.094 0-1.99-.89-1.99-1.99v-3.104c0-1.094.889-1.99 1.99-1.99h.747l-.36-4.988c-.02-.374.163-.734.48-.924 4.142-2.512 9.588-2.201 14.054.74zm-.988 1.73c-3.654-2.456-8.057-2.858-11.5-1.059l.34 4.685c1.27.437 2.186 1.643 2.186 3.062v.592c0 1.242-.698 2.321-1.721 2.865v.035l.402 5.566c3.104-2.25 6.977-2.949 10.293-1.841zm13.497-1.052c-3.436-1.806-7.838-1.404-11.5 1.051v2.201h4.36c.55 0 .995.445.995.995s-.445.995-.995.995h-4.367v1.8h1.961c.55 0 .995.444.995.994s-.444.995-.995.995h-1.961v5.926c3.316-1.108 7.19-.41 10.293 1.841.134-1.806.41-5.601.41-5.594-1.023-.55-1.722-1.623-1.722-2.865v-.592c0-1.418.917-2.625 2.187-3.062zm-25.716 6.484H17.35v3.104h1.707c.691 0 1.256-.564 1.256-1.256h.007v-.592c0-.692-.565-1.256-1.256-1.256zm28.143 0h-1.715c-.691 0-1.255.564-1.255 1.256v.592c0 .692.564 1.256 1.255 1.256h1.715v-3.104zM32.278 14.08c3.429 0 6.223 2.787 6.223 6.216 0 3.428-2.794 6.222-6.223 6.222s-6.222-2.787-6.222-6.215c0-3.43 2.793-6.223 6.222-6.223zm0 1.99c-2.335 0-4.233 1.897-4.233 4.233 0 2.335 1.898 4.233 4.233 4.233s4.233-1.898 4.233-4.233c0-2.336-1.898-4.233-4.233-4.233z" transform="translate(-683 -1223) translate(150 868) translate(420 357) translate(118)"/>
                    </g>
                </g>
            </g>
        </g>
    </g>
</svg>
