<svg xmlns="http://www.w3.org/2000/svg" width="22" height="20" viewBox="0 0 22 20">
    <g fill="none" fill-rule="evenodd">
        <g fill="#DFE0E6" fill-rule="nonzero">
            <g>
                <g>
                    <g>
                        <path d="M19.92 21.505V35h-4.645V21.505h4.644zm11.4-.316c3.055 0 5.347 1.928 5.347 6.073V35h-4.645v-7.22c0-1.813-.672-3.05-2.352-3.05-1.284 0-2.048.834-2.383 1.64-.123.288-.153.69-.153 1.094V35h-4.645V21.505h4.645v1.957s1.68-2.273 4.186-2.273zM17.628 15c1.589 0 2.566 1.008 2.597 2.332 0 1.243-.93 2.248-2.437 2.326l-.191.005h-.03c-1.56 0-2.567-1.036-2.567-2.331C15 16.008 16.039 15 17.628 15z" transform="translate(-1208 -4200) translate(0 4090) translate(968 60) translate(0 35) translate(225)"/>
                    </g>
                </g>
            </g>
        </g>
    </g>
</svg>
