<svg xmlns="http://www.w3.org/2000/svg" width="87" height="40" viewBox="0 0 87 40">
    <defs>
        <linearGradient id="qvfwzt95ba" x1="175.916%" x2="273.161%" y1="37.816%" y2="27.173%">
            <stop offset="84.75%" stop-color="#1866FB"/>
            <stop offset="100%" stop-color="#33D0FD"/>
        </linearGradient>
        <linearGradient id="3mdkb0edqb" x1="28.212%" x2="72.455%" y1="70.457%" y2="36.034%">
            <stop offset="21.95%" stop-color="#183BDB"/>
            <stop offset="100%" stop-color="#33D0FD"/>
        </linearGradient>
        <linearGradient id="b22ig96y8c" x1="15.354%" x2="100.383%" y1="68.081%" y2="26.535%">
            <stop offset="0%" stop-color="#1866FB"/>
            <stop offset="100%" stop-color="#33D0FD"/>
        </linearGradient>
    </defs>
    <g fill="none" fill-rule="evenodd">
        <g fill-rule="nonzero">
            <g>
                <g>
                    <g>
                        <g>
                            <path fill="url(#qvfwzt95ba)" d="M22.465.15c-.12-.087-.277-.125-.485-.123-3.989.007-7.978.015-11.966.002-1.149-.004-2.238.26-3.288.639-.757.273-1.512.624-2.167 1.075C2.796 2.957 1.448 4.493.682 6.494.172 7.83.08 9.191.034 10.577c-.012.386.218.56.587.598.16.016.32.016.481.016h1.012c1.824-.002 3.647-.005 5.472 0h12.457c1.597-2.746 2.509-5.906 2.509-9.272C22.55 1.32 22.519.73 22.465.15z" transform="translate(-150 -18) translate(150 18) translate(17.557 18.1)"/>
                            <path fill="url(#3mdkb0edqb)" d="M22.465.15c-.12-.087-.277-.125-.485-.123-3.989.007-7.978.015-11.966.002-1.149-.004-2.238.26-3.288.639-.757.273-1.512.624-2.167 1.075C2.796 2.957 1.448 4.493.682 6.494.172 7.83.08 9.191.034 10.577c-.012.386.218.56.587.598.16.016.32.016.481.016h1.012c1.824-.002 3.647-.005 5.472 0h12.457c1.597-2.746 2.509-5.906 2.509-9.272C22.55 1.32 22.519.73 22.465.15z" transform="translate(-150 -18) translate(150 18) translate(17.557 18.1)"/>
                        </g>
                        <path fill="url(#b22ig96y8c)" d="M25.243 28.757c-.298.135-.61.246-.953.295-1.964.282-3.906.447-5.861-.11-1.019-.292-1.967-.71-2.845-1.279-1.012-.655-1.84-1.51-2.581-2.465-.768-.988-1.278-2.11-1.582-3.285-.302-1.165-.415-2.38-.272-3.613.12-1.024.31-2.038.746-2.948.434-.905 1.026-1.75 1.643-2.547.057-.072.114-.143.172-.211.238-.284.49-.547.759-.791.921-.791 2.002-1.365 3.17-1.778 1.092-.383 2.238-.55 3.41-.546 3.161.012 6.321.02 9.48-.053.778-.018 1.587-.262 2.31-.568.908-.382 1.755-.87 2.5-1.519.152-.173.299-.35.437-.532l.007-.01c.085-.113.168-.227.25-.345.007-.01.014-.023.023-.034.074-.108.147-.219.217-.33.015-.023.027-.046.042-.07.061-.101.123-.203.18-.304.023-.04.043-.08.064-.12.047-.088.096-.177.141-.267.033-.065.062-.132.093-.2.03-.066.063-.133.092-.2.058-.136.114-.274.165-.415.36-.986.557-2.018.545-3.08.001-.18 0-.359-.011-.54-.042-.695-.038-.727-.726-.727C31.435.16 26.01.195 20.588.139 17.786.11 15.11.623 12.512 1.622c-.702.27-1.417.563-2.043.972-.053.034-.103.068-.154.103l.005.022-.005.003c-.105.058-.21.118-.313.178-5.92 3.446-9.9 9.858-9.9 17.201 0 10.985 8.904 19.89 19.889 19.89 7.815 0 14.576-4.509 17.826-11.066.027-.056.058-.112.085-.168H25.243z" transform="translate(-150 -18) translate(150 18)"/>
                    </g>
                    <g fill="#060B23">
                        <path d="M5.656 17.624c-.822 0-1.576-.167-2.264-.498-.688-.333-1.276-.79-1.767-1.367-.49-.577-.868-1.247-1.136-2.005-.268-.76-.404-1.568-.404-2.422 0-.903.138-1.741.415-2.516.276-.774.671-1.46 1.185-2.054.514-.594 1.122-1.053 1.825-1.377.702-.324 1.48-.487 2.334-.487.963 0 1.808.213 2.536.64.726.428 1.327 1.003 1.801 1.73v-2.18h2.773v11.746c0 1.224-.3 2.272-.902 3.142-.6.871-1.413 1.539-2.441 2.002-1.028.464-2.212.695-3.555.695s-2.48-.224-3.413-.675C1.71 21.548.913 20.912.25 20.09l1.73-1.683c.474.585 1.07 1.043 1.79 1.374.719.331 1.48.498 2.288.498.664 0 1.28-.116 1.848-.346.568-.232 1.019-.588 1.35-1.071.331-.484.498-1.117.498-1.903v-1.564c-.395.712-.968 1.26-1.718 1.648-.75.387-1.542.58-2.38.58zm1.066-2.536c.364 0 .699-.055 1.007-.167.307-.112.597-.262.865-.452s.505-.417.711-.677c.205-.263.355-.534.45-.82v-2.948c-.173-.493-.43-.92-.77-1.284s-.719-.646-1.137-.843C7.43 7.7 6.99 7.6 6.532 7.6c-.474 0-.912.103-1.316.31-.403.206-.747.49-1.03.856-.284.365-.505.776-.664 1.236-.157.46-.237.934-.237 1.426 0 .507.09.983.273 1.426.181.444.428.836.735 1.177.308.34.675.602 1.102.785.428.181.87.272 1.327.272zM23.716 7.716c-.98.016-1.848.203-2.608.557-.759.355-1.313.882-1.658 1.577v7.536h-3.151v-12.3h2.914v2.536c.441-.853 1.008-1.524 1.694-2.015.688-.49 1.41-.758 2.168-.805.158.016.284.02.38.012.094-.007.181.004.26.037v2.865zM25.942 3.214V.087h3.153v3.127h-3.153zm0 14.172V4.968h3.153v12.418h-3.153zM39.902 16.771c-.284.127-.612.257-.983.391-.37.134-.774.244-1.209.331-.434.087-.872.13-1.315.13-.601 0-1.146-.1-1.635-.305-.49-.205-.881-.529-1.173-.976-.293-.445-.438-1.03-.438-1.748V7.502h-1.61V5.086h1.61V1.057h3.2v4.029h2.607v2.416h-2.607v6.013c.017.422.134.73.355.925.22.193.505.293.853.293.316 0 .631-.06.948-.177.315-.12.576-.227.782-.32l.615 2.535z" transform="translate(-150 -18) translate(150 18) translate(46.154 8.688)"/>
                    </g>
                </g>
            </g>
        </g>
    </g>
</svg>
