<svg xmlns="http://www.w3.org/2000/svg" width="16" height="18" viewBox="0 0 16 18">
    <g fill="none" fill-rule="evenodd">
        <g fill="#B5B6BD" fill-rule="nonzero">
            <g>
                <g>
                    <path d="M165.94 26.536C165.66 27.94 164.448 29 163 29c-1.449 0-2.66-1.06-2.94-2.464zM163.8 11c2.709.4 4.8 2.793 4.8 5.682v2.29c0 1.625.694 3.159 1.903 4.208.319.28.497.678.497 1.098 0 .793-.628 1.437-1.4 1.437h-13.2c-.772 0-1.4-.644-1.4-1.437 0-.42.178-.818.49-1.091 1.216-1.056 1.91-2.59 1.91-4.215v-2.29c0-2.89 2.09-5.281 4.8-5.682z" transform="translate(-1183 -29) translate(1028 18)"/>
                </g>
            </g>
        </g>
    </g>
</svg>
