<svg xmlns="http://www.w3.org/2000/svg" width="26" height="20" viewBox="0 0 26 20">
    <g fill="none" fill-rule="evenodd">
        <g fill="#DFE0E6" fill-rule="nonzero">
            <g>
                <g>
                    <g>
                        <path d="M38.333 17.368c-.93.401-1.92.667-2.953.797 1.063-.625 1.874-1.607 2.255-2.79-.99.582-2.084.993-3.25 1.222C33.445 15.61 32.104 15 30.64 15c-2.837 0-5.122 2.268-5.122 5.048 0 .4.035.784.119 1.15-4.26-.204-8.031-2.215-10.564-5.278-.442.755-.702 1.62-.702 2.55 0 1.748.914 3.298 2.277 4.195-.823-.016-1.631-.251-2.316-.622v.055c0 2.453 1.777 4.49 4.107 4.959-.418.112-.872.166-1.344.166-.328 0-.66-.018-.97-.086.664 1.998 2.548 3.468 4.789 3.515-1.744 1.343-3.958 2.153-6.355 2.153-.42 0-.824-.019-1.227-.07C15.603 34.177 18.294 35 21.196 35c9.431 0 14.587-7.692 14.587-14.36 0-.223-.007-.438-.018-.652 1.017-.711 1.871-1.599 2.568-2.62z" transform="translate(-1131 -4200) translate(0 4090) translate(968 60) translate(0 35) translate(150)"/>
                    </g>
                </g>
            </g>
        </g>
    </g>
</svg>
