<svg xmlns="http://www.w3.org/2000/svg" width="54" height="42" viewBox="0 0 54 42">
    <g fill="none" fill-rule="evenodd">
        <g>
            <g>
                <g>
                    <path fill="#D96704" d="M25.407 22.474l-6.587 6.587c-.202.187-.28.216-.427.265-.66.223-1.47-.34-1.455-1.066.005-.282.13-.55.323-.759l7.53-7.53c.446-.442 1.058-.698 1.688-.71h.062c.626.012 1.24.267 1.688.71l7.53 7.53c.188.203.216.28.266.427.223.662-.335 1.47-1.066 1.456-.282-.005-.55-.13-.76-.323l-6.586-6.587V40.28c-.012.297-.053.378-.133.525-.318.586-1.221.743-1.717.286-.224-.206-.343-.504-.356-.811V22.474z" transform="translate(-687 -465) translate(605 465) translate(82.5)"/>
                    <path fill="#DDDEE0" d="M20.305 35.398H9.912c-4.913-.016-9.561-4.04-9.894-9.28-.255-4.033 2.185-8.112 5.981-9.746.922-.397 1.907-.65 2.903-.753l.03-.003.025-.195C9.79 9.02 14.45 3.116 20.79.947 22.609.324 24.535.009 26.455 0h.11c5.396.026 10.722 2.666 14.005 6.951 1.91 2.495 3.134 5.5 3.513 8.63 0 0-.169.012.222.059 3.906.483 7.393 3.44 8.404 7.366 1.002 3.887-.597 8.296-3.96 10.63-1.64 1.138-3.627 1.756-5.64 1.762H32.714c-.298-.047-.395-.026-.648-.21-.566-.411-.574-1.367 0-1.785.253-.184.35-.163.648-.21h10.39c3.864-.013 7.52-3.245 7.704-7.362.106-2.409-.993-4.84-2.872-6.355-1.353-1.09-3.06-1.697-4.831-1.703 0 0-.213-.005-.357-.049-.737-.228-.77-1.255-.885-2.114-.723-5.357-4.455-10.208-9.537-12.274-4.479-1.82-9.82-1.385-13.966 1.186-4.187 2.597-7.002 7.234-7.315 12.218l-.07.324c-.169.297-.389.562-.705.66-.297.092-.6.047-.902.068-2.728.19-5.287 1.956-6.445 4.435-.982 2.103-.942 4.653.102 6.722 1.28 2.534 4.057 4.235 6.89 4.244h10.389c.298.047.395.026.648.21.556.404.571 1.37 0 1.785-.253.184-.35.163-.648.21z" transform="translate(-687 -465) translate(605 465) translate(82.5)"/>
                </g>
            </g>
        </g>
    </g>
</svg>
