<svg xmlns="http://www.w3.org/2000/svg" width="40" height="48" viewBox="0 0 40 48">
    <g fill="none" fill-rule="evenodd">
        <g fill="#959696" fill-rule="nonzero">
            <g>
                <g>
                    <g>
                        <path d="M77.052 78.433c4.762 0 9.329 1.912 12.695 5.316 3.366 3.405 5.256 8.021 5.253 12.834C95 97.918 93.93 99 92.609 99H57.39c-.636 0-1.246-.256-1.694-.712-.45-.455-.7-1.073-.697-1.716 0-10.018 8.036-18.14 17.948-18.14zM74.584 51c6.09 0 11.063 4.918 11.195 11.072 0 6.275-5.015 13.933-11.198 13.933-6.182 0-11.193-7.658-11.193-13.933C63.521 55.918 68.494 51 74.584 51z" transform="translate(-554 -461) translate(499 320) translate(0 90)"/>
                    </g>
                </g>
            </g>
        </g>
    </g>
</svg>
