<svg xmlns="http://www.w3.org/2000/svg" xmlns:xlink="http://www.w3.org/1999/xlink" width="429" height="100" viewBox="0 0 429 100">
    <defs>
        <path id="a" d="M0 1h93.465v80.664H0z"/>
        <path id="c" d="M47.35 73.52h46.115v25.533H47.35z"/>
        <path id="e" d="M0 73.483h46.116v25.534H0z"/>
        <path id="g" d="M0 99.053h428.545V1H0z"/>
    </defs>
    <g fill="none" fill-rule="evenodd">
        <path fill="#0B9AD5" d="M58.438 78.055l-11.624-6.708-11.58 6.68-14.08-8.127 25.659-15.227 25.713 15.262z"/>
        <path fill="#33ACE1" d="M21.156 69.897V44.505c0-.273.018-.542.048-.807a7.035 7.035 0 0 1 3.493-5.44L35.26 32.16v45.88l-14.104-8.143zM58.43 78.06V32.19l10.563 6.095a7.033 7.033 0 0 1 3.493 5.435c.03.265.047.534.047.807v25.404L58.43 78.06z"/>
        <mask id="b" fill="#fff">
            <use xlink:href="#a"/>
        </mask>
        <path fill="#293C8E" d="M0 81.627v-32.83c0-.274.018-.544.048-.809A7.04 7.04 0 0 1 3.54 42.55l10.563-6.099v37.034L0 81.627zm14.669-45.854l-.005-12.198a7.034 7.034 0 0 1 2.963-5.743 6.86 6.86 0 0 1 .676-.445L46.705 1l28.454 16.421c.237.137.46.286.675.445a7.042 7.042 0 0 1 2.967 5.746v12.2L46.706 17.288 14.669 35.773zm78.796 45.891L79.362 73.52V36.481l10.563 6.1a7.038 7.038 0 0 1 3.492 5.44c.03.265.047.534.047.808v32.835z" mask="url(#b)"/>
        <mask id="d" fill="#fff">
            <use xlink:href="#c"/>
        </mask>
        <path fill="#33ACE1" d="M93.465 81.664l-28.38 16.389a7.28 7.28 0 0 1-.724.362 7.03 7.03 0 0 1-6.453-.308L47.35 92.006 79.361 73.52l14.104 8.144z" mask="url(#d)"/>
        <mask id="f" fill="#fff">
            <use xlink:href="#e"/>
        </mask>
        <path fill="#33ACE1" d="M14.103 73.483L46.116 91.97l-10.56 6.102a7.039 7.039 0 0 1-6.453.307 7.167 7.167 0 0 1-.722-.363L0 81.627l14.103-8.144z" mask="url(#f)"/>
        <path fill="#293C8E" d="M120.429 46.309h6.271c2.23 12.172 3.436 18.907 3.624 20.207 0 .093.045.278.139.557.185 1.209.279 2.045.279 2.508h.139c.186-.836.418-1.903.696-3.205.279-1.485 1.812-8.174 4.599-20.067h6.551c3.156 12.729 4.829 19.51 5.015 20.346.28.93.418 1.95.418 3.066h.141c0-.28.091-.976.277-2.091.092-.464.141-.788.141-.975.091-.742 1.299-7.525 3.623-20.346h6.131l-6.689 29.125h-6.689c-3.065-12.263-4.692-18.765-4.878-19.51-.277-.836-.418-1.811-.418-2.926h-.139v.279c-.187 1.208-.373 2.09-.557 2.647-.187.745-1.86 7.247-5.017 19.51h-6.968l-6.689-29.125zM165.58 63.17h10.73c-.187-3.156-1.95-4.83-5.295-5.016-3.345.187-5.157 1.86-5.435 5.017m10.591 5.853l6.27.697c-1.672 4.087-5.388 6.132-11.148 6.132-7.434-.28-11.287-3.763-11.567-10.452.28-7.247 3.95-11.01 11.01-11.288 7.525 0 11.287 3.763 11.287 11.288v1.394H165.72c.185 3.159 2.043 4.83 5.574 5.016 2.51 0 4.133-.928 4.878-2.787M201.117 66.097v-1.533c-1.21.744-3.066 1.393-5.575 1.951-3.066.558-4.6 1.626-4.6 3.205-.093 1.487 1.069 2.23 3.486 2.23 4.085-.279 6.316-2.23 6.689-5.853m6.549 9.197h-5.714c-.558-.836-.883-1.857-.976-3.066-1.95 2.322-4.97 3.53-9.058 3.624-4.18-.279-6.41-2.23-6.689-5.853 0-3.809 2.6-6.038 7.804-6.689 4.088-.837 6.643-1.533 7.665-2.09.185-2.137-1.255-3.158-4.32-3.066-2.602 0-4.228.975-4.877 2.926l-5.575-.836c1.116-4.087 4.55-6.132 10.313-6.132 7.153-.185 10.59 2.742 10.313 8.78v8.222c0 1.672.37 3.066 1.114 4.18"/>
        <mask id="h" fill="#fff">
            <use xlink:href="#g"/>
        </mask>
        <path fill="#293C8E" d="M211.151 75.294h5.992V44.775h-5.992zM229.266 46.309v8.222h5.018v4.459h-5.018v9.337c0 2.138.882 3.205 2.648 3.205.649 0 1.254-.185 1.812-.557l1.254 3.763c-1.115.742-2.835 1.114-5.156 1.114-4.275.092-6.365-2-6.271-6.271V58.99h-3.484v-4.46h3.484v-6.967l5.713-1.254zM258.114 75.295h-5.854V63.589c0-3.251-1.347-4.877-4.041-4.877-2.88.187-4.414 1.905-4.598 5.156v11.427h-5.854V44.637h5.854v13.239c1.764-2.415 4.087-3.67 6.968-3.763 5.108-.091 7.616 2.742 7.525 8.5v12.682zM276.786 62.892h-6.968v8.222h6.968c3.53 0 5.296-1.394 5.296-4.18-.279-2.6-2.045-3.949-5.296-4.042m-.696-11.985h-6.272v7.386h6.272c3.065-.09 4.644-1.394 4.738-3.902 0-2.32-1.58-3.484-4.738-3.484m1.672 24.527h-13.936V46.31h13.378c6.317.187 9.707 2.508 10.174 6.967.091 3.532-1.813 5.807-5.714 6.828v.14c4.087.745 6.362 3.02 6.828 6.83.092 5.573-3.483 8.36-10.73 8.36M293.231 75.294h5.992V44.775h-5.992zM314.274 71.532c3.345 0 5.017-2.136 5.017-6.41-.094-4.181-1.766-6.317-5.017-6.411-3.438.094-5.204 2.23-5.296 6.41.092 4.09 1.858 6.226 5.296 6.41m0-17.418c7.153.278 10.87 3.95 11.148 11.009-.278 6.876-3.995 10.452-11.148 10.73-7.062-.372-10.778-3.902-11.148-10.591.278-7.153 3.993-10.87 11.148-11.148M350.506 60.941l-6.132.976c-.744-2.043-2.229-3.112-4.459-3.206-3.438.188-5.25 2.324-5.434 6.411.09 4.18 1.902 6.32 5.434 6.41 2.694-.09 4.227-1.485 4.6-4.18l6.27.836c-1.302 5.295-4.97 7.85-11.009 7.664-7.34-.187-11.103-3.763-11.289-10.73.28-7.153 4.042-10.822 11.29-11.01 5.294.188 8.87 2.463 10.73 6.83M367.368 62.753l9.058 12.542h-7.106l-5.853-8.918-3.623 3.483v5.435h-5.853V44.637h5.853V63.17l8.639-8.64h7.387zM379.911 75.434h6.41v-6.27h-6.41zM404.437 51.186a38.5 38.5 0 0 1-.697 2.647c-.094.188-1.302 3.624-3.623 10.313h8.919c-2.417-6.689-3.672-10.173-3.763-10.452-.094-.185-.188-.464-.28-.836-.278-.836-.465-1.393-.556-1.672zm3.762-4.877l11.149 29.125h-6.69l-2.368-6.689h-11.567l-2.37 6.69h-6.55l11.15-29.126h7.246zM422.413 75.433h6.132V46.308h-6.132z" mask="url(#h)"/>
    </g>
</svg>
