<svg xmlns="http://www.w3.org/2000/svg" width="18" height="19.545" viewBox="0 0 18 19.545">
  <path id="user" d="M209,143.418a3.009,3.009,0,0,1-.881,2.288,3.256,3.256,0,0,1-2.342.839H195.224a3.256,3.256,0,0,1-2.342-.839,3.009,3.009,0,0,1-.881-2.288q0-.64.042-1.25a12.291,12.291,0,0,1,.169-1.316,10.232,10.232,0,0,1,.32-1.31,6.206,6.206,0,0,1,.519-1.177,4.244,4.244,0,0,1,.749-.978,3.15,3.15,0,0,1,1.032-.646,3.626,3.626,0,0,1,1.346-.241,1.475,1.475,0,0,1,.507.26q.4.26.9.58a5.705,5.705,0,0,0,1.3.58,5.134,5.134,0,0,0,3.224,0,5.705,5.705,0,0,0,1.3-.58q.5-.32.9-.58a1.475,1.475,0,0,1,.507-.26,3.626,3.626,0,0,1,1.346.241,3.15,3.15,0,0,1,1.032.646,4.245,4.245,0,0,1,.749.978,6.207,6.207,0,0,1,.519,1.177,10.235,10.235,0,0,1,.32,1.31,12.3,12.3,0,0,1,.169,1.316Q209,142.778,209,143.418Zm-3.864-10.782a4.638,4.638,0,1,1-1.358-3.278A4.467,4.467,0,0,1,205.136,132.636Z" transform="translate(-191.5 -127.5)" fill="#cd2728" stroke="#fff" stroke-width="1"/>
</svg>
